/* XPM */
static char * 0_xpm[] = {
"16 30 2 1",
" 	c #000000",
".	c #FFFFFF",
"                ",
"                ",
"                ",
"                ",
"    .......     ",
"  ...........   ",
" .............  ",
" .............  ",
"......   ...... ",
"......   ...... ",
".....     ..... ",
".....     ..... ",
".....     ..... ",
".....     ..... ",
".....     ..... ",
".....     ..... ",
".....     ..... ",
".....     ..... ",
".....     ..... ",
"......   ...... ",
" .....   ...... ",
" .............  ",
"  ............  ",
"  ...........   ",
"    ........    ",
"                ",
"                ",
"                ",
"                ",
"                "};
