/* XPM */
static char * 1_xpm[] = {
"12 30 3 1",
" 	c #000000",
".	c #FFFFFF",
"+	c #212121",
"            ",
"            ",
"            ",
"            ",
"    ......  ",
"   .......  ",
"  ........  ",
" .........  ",
"+.........  ",
"..........  ",
"..........  ",
"..  ......  ",
"    ......  ",
"    ......  ",
"    ......  ",
"    ......  ",
"    ......  ",
"    ......  ",
"    ......  ",
"    ......  ",
"    ......  ",
"    ......  ",
"    ......  ",
"    ......  ",
"    ......  ",
"            ",
"            ",
"            ",
"            ",
"            "};
