/* XPM */
static char * 2_xpm[] = {
"16 30 2 1",
" 	c #000000",
".	c #FFFFFF",
"                ",
"                ",
"                ",
"                ",
"   .........    ",
" ............   ",
"..............  ",
"............... ",
" .....   ...... ",
"  ..      ..... ",
"          ..... ",
"         ...... ",
"         .....  ",
"        ......  ",
"       ......   ",
"      ......    ",
"     ......     ",
"    ......      ",
"   ......       ",
"  ......        ",
" ......         ",
"................",
"................",
"................",
"................",
"                ",
"                ",
"                ",
"                ",
"                "};
