/* XPM */
static char * 3_xpm[] = {
"15 30 2 1",
" 	c #000000",
".	c #FFFFFF",
"               ",
"               ",
"               ",
"               ",
"  ..........   ",
".............  ",
".............. ",
" ..............",
" ....    ......",
"         ......",
"         ......",
"         ..... ",
"      ........ ",
"   ..........  ",
"   .........   ",
"   ........... ",
"   ............",
"         ......",
"          .....",
"          .....",
"...      ......",
"...............",
".............. ",
".............  ",
" ...........   ",
"               ",
"               ",
"               ",
"               ",
"               "};
