/* XPM */
static char * 4_xpm[] = {
"17 30 2 1",
" 	c #000000",
".	c #FFFFFF",
"                 ",
"                 ",
"                 ",
"                 ",
"         ......  ",
"        .......  ",
"        .......  ",
"       ........  ",
"      .........  ",
"     ..........  ",
"     ..........  ",
"    ...........  ",
"   ..... ......  ",
"   ..... ......  ",
"  .....  ......  ",
" .....   ......  ",
" ....    ......  ",
".................",
".................",
".................",
".................",
"         .....   ",
"         .....   ",
"         .....   ",
"         .....   ",
"                 ",
"                 ",
"                 ",
"                 ",
"                 "};
